<svg xmlns="http://www.w3.org/2000/svg" viewBox="0 0 32 32" role="img" aria-label="Albania Guidebook — флаг Албании">
  <rect width="32" height="32" rx="6" fill="#e8112d"/>
  <g fill="#0a0a0a">
    <!-- Двуглавый орёл (шкипоня), упрощённый симметричный силуэт относительно x=16 -->
    <circle cx="12.4" cy="9.6" r="1.95"/>
    <circle cx="19.6" cy="9.6" r="1.95"/>
    <path d="M10.9 8.3 L8.1 9.0 L11.1 10.6 Z"/>
    <path d="M21.1 8.3 L23.9 9.0 L20.9 10.6 Z"/>
    <path d="M12.4 10.9 C13.2 13 14.3 13.6 16 13.9 C17.7 13.6 18.8 13 19.6 10.9 L18.1 12.1 C17.2 12.9 14.8 12.9 13.9 12.1 Z"/>
    <path d="M16 12.8 C18.4 14 18.7 17.2 18 21.2 L14 21.2 C13.3 17.2 13.6 14 16 12.8 Z"/>
    <path d="M14.2 13.4 C10.5 10.6 6.4 11.1 5.0 13.7 C8.6 13.8 11.5 15.0 14.2 16.8 Z"/>
    <path d="M17.8 13.4 C21.5 10.6 25.6 11.1 27.0 13.7 C23.4 13.8 20.5 15.0 17.8 16.8 Z"/>
    <path d="M13.5 20.6 L18.5 20.6 L17.6 25.0 L16.8 23.2 L16 25.2 L15.2 23.2 L14.4 25.0 Z"/>
  </g>
</svg>
